<?xml version="1.0" encoding="UTF-8"?>
<svg width="59px" height="58px" viewBox="0 0 59 58" version="1.1" xmlns="http://www.w3.org/2000/svg" xmlns:xlink="http://www.w3.org/1999/xlink">
    <title>储罐1</title>
    <g id="页面-1" stroke="none" stroke-width="1" fill="none" fill-rule="evenodd">
        <g id="储罐" transform="translate(-45.000000, -31.000000)">
            <g id="编组" transform="translate(46.862000, 32.290050)">
                <polygon id="Fill-1" fill="#4C4C4C" points="49.1247 2.0652 50.8557 5.6642 50.8557 51.3742 49.1247 54.8642 50.8557 54.8642 54.1857 51.3742 54.1857 5.6642 50.8557 2.0652"></polygon>
                <polygon id="Fill-2" fill="#7F7F7F" points="3.7152 2.0652 0.3752 5.6642 0.3752 51.3742 3.7152 54.8642 5.4352 54.8642 3.7152 51.3742 3.7152 5.6642 5.4352 2.0652"></polygon>
                <polygon id="Fill-3" fill="#7F7F7F" points="40.7619 2.0652 42.3729 5.6642 42.3729 51.3742 40.7619 54.8642 44.9619 54.8642 46.6529 51.3742 46.6529 5.6642 44.9619 2.0652"></polygon>
                <polygon id="Fill-4" fill="#666666" points="44.9622 2.0652 46.6522 5.6642 46.6522 51.3742 44.9622 54.8642 49.1232 54.8642 50.8532 51.3742 50.8532 5.6642 49.1232 2.0652"></polygon>
                <polygon id="Fill-5" fill="#999999" points="5.4324 2.0652 3.7124 5.6642 3.7124 51.3742 5.4324 54.8642 9.6324 54.8642 7.9124 51.3742 7.9124 5.6642 9.6324 2.0652"></polygon>
                <polygon id="Fill-6" fill="#999999" points="36.5625 2.0652 38.1725 5.6642 38.1725 51.3742 36.5625 54.8642 40.7615 54.8642 42.4525 51.3742 42.4525 5.6642 40.7615 2.0652"></polygon>
                <polygon id="Fill-7" fill="#B2B2B2" points="9.6327 2.0652 7.9127 5.6642 7.9127 51.3742 9.6327 54.8642 13.8327 54.8642 12.1117 51.3742 12.1117 5.6642 13.8327 2.0652"></polygon>
                <polygon id="Fill-8" fill="#B2B2B2" points="32.7753 2.0652 33.9753 5.6642 33.9753 51.3742 32.7753 54.8642 36.5653 54.8642 38.2853 51.3742 38.2853 5.6642 36.5653 2.0652"></polygon>
                <polygon id="Fill-9" fill="#CCCCCC" points="13.833 2.0652 12.112 5.6642 12.112 51.3742 13.833 54.8642 18.032 54.8642 16.312 51.3742 16.312 5.6642 18.032 2.0652"></polygon>
                <polygon id="Fill-10" fill="#CCCCCC" points="29.025 2.0652 29.775 5.6642 29.775 51.3742 29.025 54.8642 32.775 54.8642 34.085 51.3742 34.085 5.6642 32.775 2.0652"></polygon>
                <polygon id="Fill-11" fill="#E5E5E5" points="18.0423 2.0652 16.3123 5.6642 16.3123 51.3742 18.0423 54.8642 21.7923 54.8642 20.5123 51.3742 20.5123 5.6642 21.7923 2.0652"></polygon>
                <polygon id="Fill-12" fill="#E5E5E5" points="25.5726 2.0652 24.7126 5.6642 24.7126 51.3742 25.5726 54.8642 29.0226 54.8642 29.7726 51.3742 29.7726 5.6642 29.0226 2.0652"></polygon>
                <polygon id="Fill-13" fill="#FFFFFF" points="21.7926 2.0652 20.5116 5.6642 20.5116 51.3742 21.7926 54.8642 25.5726 54.8642 24.7126 51.3742 24.7126 5.6642 25.5726 2.0652"></polygon>
                <polygon id="Fill-14" fill="#7F7F7F" points="40.7599 2.0651 50.8499 2.0651 27.2999 0.3751"></polygon>
                <polygon id="Fill-15" fill="#B2B2B2" points="27.2999 0.3752 30.6399 2.0652 40.7599 2.0652"></polygon>
                <polygon id="Fill-16" fill="#E5E5E5" points="30.6349 2.0651 27.3049 0.3751 21.3749 2.0651"></polygon>
                <polygon id="Fill-17" fill="#CCCCCC" points="12.9752 2.0651 21.3752 2.0651 27.2952 0.3751"></polygon>
                <polygon id="Fill-18" fill="#B2B2B2" points="12.9723 2.0651 27.3023 0.3751 3.7123 2.0651"></polygon>
                <g transform="translate(0.000000, 0.239900)" stroke-linecap="round" stroke-linejoin="round" stroke-width="0.75">
                    <polygon id="Stroke-19" stroke="#000000" points="3.7125 1.8252 50.8525 1.8252 27.3025 0.1352"></polygon>
                    <polygon id="Stroke-21" stroke="#000000" points="50.8551 1.8252 3.7151 1.8252 0.3751 5.4252 0.3751 51.1352 3.7151 54.6252 50.8551 54.6252 54.1851 51.1352 54.1851 5.4252"></polygon>
                    <polyline id="Stroke-23" stroke="#B2B2B2" points="54.1852 49.7852 54.0752 50.0152 52.1652 50.6852 40.1952 51.8152 19.5352 51.9252 6.9352 51.2452 2.8452 50.6852 1.3452 50.2352 0.9352 50.0152 0.8252 49.7852"></polyline>
                    <polyline id="Stroke-25" stroke="#B2B2B2" points="54.1852 6.6626 54.0752 6.4326 52.1652 5.7626 40.1952 4.7526 8.6652 5.0826 2.8452 5.7626 1.3452 6.2126 0.9352 6.4326 0.8252 6.6626"></polyline>
                </g>
            </g>
        </g>
    </g>
</svg>
